<svg xmlns="http://www.w3.org/2000/svg" fill="#000000" class="bi bi-linkedin" viewBox="0 0 24 24" id="Linkedin--Streamline-Bootstrap" height="24" width="24"><desc>Linkedin Streamline Icon: https://streamlinehq.com</desc><path d="M0 1.7189999999999999C0 0.7695000000000001 0.789 0 1.7625000000000002 0h20.475C23.211 0 24 0.7695000000000001 24 1.7189999999999999v20.562c0 0.9495 -0.789 1.7189999999999999 -1.7625000000000002 1.7189999999999999H1.7625000000000002C0.789 24 0 23.2305 0 22.281zm7.414499999999999 18.372V9.253499999999999H3.8129999999999997v10.837499999999999zm-1.7999999999999998 -12.318c1.2555 0 2.037 -0.8310000000000001 2.037 -1.8719999999999999 -0.0225 -1.0635 -0.78 -1.8719999999999999 -2.013 -1.8719999999999999S3.5999999999999996 4.839 3.5999999999999996 5.901c0 1.041 0.7815000000000001 1.8719999999999999 1.9905 1.8719999999999999zm7.362 12.318V14.038499999999999c0 -0.324 0.024 -0.648 0.12 -0.879 0.25949999999999995 -0.6465 0.8519999999999999 -1.317 1.8479999999999999 -1.317 1.3035 0 1.8239999999999998 0.9930000000000001 1.8239999999999998 2.4509999999999996v5.7975h3.6014999999999997V13.875c0 -3.33 -1.7759999999999998 -4.878 -4.146 -4.878 -1.911 0 -2.7675 1.0499999999999998 -3.2475 1.7895v0.037500000000000006h-0.024l0.024 -0.037500000000000006V9.253499999999999h-3.5999999999999996c0.045 1.0170000000000001 0 10.837499999999999 0 10.837499999999999z" stroke-width="1.5"></path></svg>