<svg width="1240" height="465" viewBox="0 0 1240 465" fill="none" xmlns="http://www.w3.org/2000/svg">
<path d="M272.76 138.234C273.876 136.746 274.992 135.27 276.121 133.794L276.158 133.807C276.196 133.757 276.221 133.707 276.246 133.657C276.259 133.632 276.271 133.594 276.271 133.569V133.394C276.259 133.369 276.259 133.332 276.259 133.307L276.252 133.282C276.242 133.237 276.229 133.186 276.208 133.144C276.196 133.119 276.18 133.094 276.165 133.069C276.149 133.044 276.133 133.019 276.121 132.994C276.103 132.959 276.08 132.931 276.055 132.9L276.036 132.877L276.02 132.856C275.983 132.806 275.945 132.756 275.907 132.719L275.782 132.594C275.763 132.575 275.741 132.556 275.719 132.538C275.697 132.519 275.675 132.5 275.657 132.481L275.624 132.456L275.588 132.425C275.566 132.406 275.544 132.387 275.519 132.369C275.431 132.294 275.331 132.219 275.243 132.156C275.055 132.019 274.854 131.894 274.654 131.769C274.604 131.737 274.553 131.709 274.503 131.681C274.453 131.653 274.403 131.625 274.353 131.593C274.302 131.568 274.252 131.54 274.202 131.512C274.152 131.484 274.102 131.456 274.052 131.431C273.945 131.381 273.842 131.328 273.738 131.274C273.635 131.221 273.531 131.168 273.425 131.118C272.998 130.918 272.572 130.73 272.146 130.543C271.92 130.455 271.707 130.368 271.493 130.28C271.387 130.236 271.277 130.196 271.167 130.155C271.058 130.114 270.948 130.074 270.841 130.03C270.403 129.867 269.964 129.717 269.525 129.567C268.647 129.267 267.757 128.992 266.866 128.729C265.976 128.467 265.073 128.229 264.17 128.004C263.267 127.779 262.364 127.579 261.449 127.379C260.546 127.179 259.631 127.004 258.715 126.841C257.8 126.678 256.885 126.528 255.957 126.403C241.536 124.402 227.115 122.426 212.694 120.475L212.482 120.45C211.828 120.371 211.181 120.293 210.525 120.225C210.161 120.188 209.798 120.15 209.434 120.125L208.343 120.05C207.616 120 206.888 120 206.161 120C205.797 120 205.434 120.013 205.07 120.038C204.982 120.044 204.891 120.053 204.8 120.063C204.71 120.072 204.619 120.081 204.531 120.088C204.355 120.1 204.167 120.125 203.992 120.15C203.891 120.163 203.804 120.175 203.716 120.188L203.691 120.194C203.652 120.204 203.619 120.213 203.578 120.213C203.553 120.213 203.531 120.219 203.509 120.225C203.487 120.231 203.465 120.238 203.44 120.238C203.396 120.25 203.352 120.26 203.308 120.269C203.264 120.278 203.22 120.288 203.177 120.3L202.913 120.375C202.825 120.4 202.738 120.425 202.65 120.463C202.606 120.481 202.565 120.5 202.524 120.519C202.484 120.538 202.443 120.557 202.399 120.575C202.349 120.588 202.311 120.613 202.274 120.638L202.161 120.713C202.142 120.725 202.123 120.741 202.104 120.757C202.086 120.772 202.067 120.788 202.048 120.8C202.035 120.813 202.022 120.825 202.01 120.836C201.986 120.857 201.964 120.876 201.948 120.9C201.91 120.938 201.885 120.975 201.86 121.013C201.835 121.05 201.81 121.101 201.797 121.138C201.793 121.156 201.786 121.173 201.78 121.189C201.77 121.217 201.76 121.244 201.76 121.276V121.413C201.76 121.438 201.763 121.46 201.766 121.482C201.769 121.504 201.772 121.526 201.772 121.551C201.785 121.601 201.797 121.651 201.81 121.688L201.817 121.711C201.828 121.745 201.84 121.783 201.86 121.813C201.872 121.863 201.898 121.901 201.923 121.938C201.973 122.014 202.023 122.089 202.086 122.164C202.098 122.182 202.114 122.198 202.129 122.214C202.145 122.229 202.161 122.245 202.173 122.264L202.274 122.364C202.336 122.426 202.399 122.489 202.474 122.551C202.498 122.571 202.521 122.591 202.543 122.61C202.591 122.652 202.636 122.692 202.688 122.726C202.838 122.839 202.988 122.939 203.139 123.039C203.289 123.139 203.44 123.239 203.603 123.327C203.753 123.427 203.916 123.514 204.079 123.602C204.161 123.646 204.242 123.686 204.324 123.727C204.405 123.768 204.487 123.808 204.568 123.852C204.895 124.015 205.221 124.165 205.559 124.315C205.898 124.465 206.236 124.602 206.574 124.74C218.776 129.63 230.965 134.57 243.141 139.547C243.668 139.76 244.194 139.972 244.721 140.16C245.248 140.348 245.774 140.535 246.314 140.71C247.379 141.061 248.458 141.386 249.549 141.673C250.627 141.961 251.718 142.236 252.822 142.474L254.477 142.811C255.029 142.924 255.593 143.024 256.145 143.112C257.261 143.299 258.377 143.449 259.493 143.574C260.045 143.637 260.609 143.687 261.173 143.724C261.738 143.762 262.302 143.787 262.866 143.812C263.155 143.824 263.43 143.824 263.719 143.824H264.572C265.136 143.824 265.7 143.787 266.264 143.737L266.299 143.734C266.564 143.71 266.84 143.685 267.105 143.637L267.518 143.562C267.587 143.543 267.656 143.527 267.725 143.512C267.794 143.496 267.863 143.48 267.932 143.462C267.964 143.449 267.998 143.44 268.032 143.43C268.067 143.421 268.101 143.412 268.133 143.399C268.152 143.399 268.167 143.393 268.183 143.387C268.199 143.38 268.214 143.374 268.233 143.374C268.247 143.369 268.26 143.363 268.272 143.357C268.291 143.346 268.31 143.337 268.333 143.337C268.471 143.299 268.609 143.249 268.735 143.187C268.749 143.178 268.763 143.17 268.777 143.163L268.829 143.137C268.86 143.121 268.891 143.105 268.923 143.087L269.111 142.974C269.236 142.899 269.337 142.799 269.424 142.686C270.528 141.198 271.644 139.71 272.76 138.234Z" fill="black"/>
<path d="M496.796 281.618C507.217 273.239 512.96 261.483 512.96 248.539L512.935 248.514C512.935 233.907 507.305 223.139 495.743 215.598C486.1 209.307 473.66 206.243 461.647 203.88C441.358 199.94 428.066 196.276 428.066 181.756C428.066 170.038 439.226 161.208 454.851 161.208C470.475 161.208 482.05 167.862 488.332 180.455L488.846 181.468L510.089 170.65L509.662 169.687C500.834 149.69 480.683 137.759 455.766 137.759C426.122 137.759 402.898 157.369 402.898 182.419C402.898 197.026 408.654 207.794 420.466 215.348C430.298 221.626 442.913 224.677 455.101 227.054C473.234 230.443 487.542 233.119 487.542 248.727C487.542 262.021 475.002 270.613 457.359 270.613C439.715 270.613 427.363 263.972 421.633 251.403L421.156 250.365L399.625 260.72L400.064 261.708C409.08 282.131 430.511 294.312 457.371 294.312C472.607 294.312 486.614 289.797 496.796 281.618Z" fill="black"/>
<path d="M771.268 291.861V235.358L771.28 235.333C771.28 219.112 766.051 204.555 756.571 194.325C746.351 183.319 731.454 177.504 714.099 177.504C696.743 177.504 682.273 183.332 672.253 194.375C662.823 204.767 657.832 219.012 657.832 235.57V291.848H682.561V237.809C682.561 227.629 685.37 218.424 690.486 211.896C696.091 204.742 704.017 200.965 714.099 200.965C724.181 200.965 732.57 204.755 738.338 211.933C743.63 218.512 746.552 227.779 746.552 238.034V291.861H771.268Z" fill="black"/>
<path fill-rule="evenodd" clip-rule="evenodd" d="M899.625 232.681C899.625 199.94 876.765 177.079 844.036 177.079C811.308 177.079 786.642 202.141 786.642 235.37C786.642 269.525 811.922 294.312 846.72 294.312C847.422 294.337 848.112 294.35 848.827 294.35C869.141 294.35 887.989 282.956 897.243 264.885L897.757 263.884L878.533 254.18L878.007 255.118C871.637 266.386 859.598 273.002 846.595 272.414H846.494C828.738 273.027 813.301 260.058 810.831 242.724H899.625V232.681ZM843.823 199.202C861.128 199.202 873.455 209.995 874.834 226.216H811.734C813.928 210.595 827.772 198.827 843.823 199.202Z" fill="black"/>
<path d="M998.038 201.428V177.966L998.025 177.979H960.657C946.487 177.979 934.749 182.694 926.686 191.611C919.075 200.027 915.049 211.771 915.049 225.54V291.861H939.79V226.428C939.79 210.77 948.355 201.428 962.713 201.428H998.038Z" fill="black"/>
<path fill-rule="evenodd" clip-rule="evenodd" d="M1059.67 177.529C1059.51 177.529 1059.34 177.526 1059.18 177.522C1059.01 177.519 1058.84 177.516 1058.68 177.516C1042.92 177.404 1028.03 183.444 1016.82 194.462C1005.61 205.468 999.392 220.163 999.304 235.808C999.304 251.603 1005.03 266.336 1015.43 277.279C1026.03 288.409 1040.52 294.537 1056.21 294.537L1056.25 294.538C1056.67 294.55 1057.09 294.562 1057.5 294.562C1072.8 294.562 1087.32 287.271 1096.41 275.153V291.873H1120V235.808C1120 202.591 1094.06 177.529 1059.67 177.529ZM1095.27 236.033V236.333C1095.22 245.725 1091.5 254.53 1084.76 261.146C1078.08 267.711 1069.24 271.313 1059.83 271.313H1059.57C1039.92 271.276 1023.97 255.38 1024.01 235.895C1024.05 216.423 1040.02 200.615 1059.63 200.615H1059.71C1079.36 200.653 1095.3 216.548 1095.26 236.033H1095.27Z" fill="black"/>
<path d="M152.654 147.839C152.252 148.439 151.876 149.052 151.5 149.677V149.652C144.026 162.058 136.578 174.49 129.141 186.921C128.665 187.709 128.201 188.522 127.762 189.335C127.323 190.147 126.884 190.973 126.47 191.798C126.044 192.636 125.643 193.474 125.254 194.312C124.865 195.162 124.489 196.013 124.126 196.863C123.762 197.714 123.423 198.577 123.097 199.452C122.934 199.89 122.784 200.328 122.633 200.765C122.592 200.897 122.549 201.029 122.506 201.161C122.407 201.468 122.307 201.776 122.22 202.091C122.082 202.529 121.956 202.979 121.856 203.429L121.705 204.104L121.593 204.792C121.555 205.03 121.53 205.255 121.517 205.493C121.517 205.572 121.516 205.651 121.514 205.728C121.512 205.883 121.509 206.035 121.517 206.193C121.517 206.318 121.53 206.431 121.555 206.543C121.567 206.606 121.58 206.668 121.593 206.718C121.605 206.743 121.614 206.771 121.624 206.8C121.633 206.828 121.643 206.856 121.655 206.881C121.68 206.931 121.705 206.981 121.743 207.031C121.748 207.036 121.753 207.043 121.759 207.052C121.768 207.064 121.778 207.079 121.793 207.093C121.806 207.118 121.831 207.143 121.856 207.156C121.881 207.181 121.906 207.194 121.931 207.206C121.948 207.212 121.962 207.219 121.974 207.227C121.991 207.236 122.005 207.244 122.019 207.244C122.082 207.281 122.132 207.281 122.194 207.281C123.921 207.353 125.636 207.436 127.362 207.52L127.599 207.531C128.502 207.575 129.402 207.622 130.301 207.669C131.201 207.716 132.101 207.763 133.004 207.806H133.217C133.28 207.806 133.355 207.794 133.418 207.769C133.48 207.756 133.555 207.731 133.618 207.706C133.65 207.694 133.681 207.678 133.712 207.662C133.744 207.647 133.775 207.631 133.806 207.619C133.932 207.556 134.057 207.494 134.17 207.419C134.295 207.344 134.408 207.269 134.521 207.181C134.577 207.137 134.631 207.093 134.684 207.05C134.737 207.006 134.791 206.962 134.847 206.918L135.161 206.643C135.273 206.556 135.374 206.456 135.474 206.356L135.775 206.055L135.805 206.022C135.893 205.923 135.973 205.833 136.063 205.743C136.164 205.643 136.264 205.53 136.352 205.43C136.54 205.218 136.728 205.005 136.904 204.792C137.254 204.368 137.592 203.918 137.931 203.468C138.269 203.018 138.596 202.554 138.91 202.091C139.236 201.616 139.537 201.153 139.838 200.678C140.44 199.727 141.004 198.764 141.556 197.789C142.095 196.801 142.622 195.813 143.123 194.812C143.374 194.313 143.625 193.811 143.863 193.299C144.101 192.799 144.34 192.286 144.565 191.773C145.017 190.748 145.443 189.722 145.845 188.672C146.045 188.146 146.233 187.621 146.421 187.096C146.597 186.571 146.772 186.033 146.935 185.495C150.748 172.889 154.585 160.295 158.485 147.714C158.585 147.376 158.685 147.026 158.786 146.676C158.815 146.559 158.846 146.442 158.876 146.326C158.937 146.092 158.999 145.859 159.049 145.625C159.137 145.275 159.199 144.925 159.262 144.562L159.337 144.024C159.35 143.974 159.35 143.937 159.35 143.887V143.749C159.362 143.662 159.362 143.562 159.362 143.474V142.649L159.356 142.624C159.346 142.585 159.337 142.553 159.337 142.511L159.328 142.474L159.319 142.442C159.312 142.421 159.306 142.399 159.3 142.374C159.281 142.307 159.254 142.247 159.226 142.184L159.199 142.123C159.187 142.073 159.162 142.036 159.137 141.998C159.124 141.98 159.108 141.961 159.093 141.942C159.077 141.923 159.061 141.905 159.049 141.886L158.999 141.836C158.986 141.811 158.974 141.798 158.949 141.786C158.924 141.761 158.898 141.747 158.873 141.733L158.856 141.723L158.836 141.711L158.818 141.701C158.803 141.692 158.791 141.686 158.773 141.686C158.761 141.661 158.735 141.661 158.71 141.661C158.66 141.636 158.623 141.636 158.572 141.636H158.434L158.41 141.642C158.371 141.652 158.338 141.661 158.297 141.661C158.271 141.667 158.25 141.673 158.228 141.679C158.206 141.686 158.184 141.692 158.159 141.698C158.14 141.705 158.118 141.714 158.096 141.723C158.074 141.733 158.052 141.742 158.033 141.748C157.974 141.774 157.914 141.805 157.859 141.834C157.832 141.848 157.807 141.861 157.782 141.873C157.732 141.886 157.695 141.911 157.657 141.936L157.544 142.011C157.507 142.036 157.469 142.064 157.431 142.092C157.394 142.12 157.356 142.148 157.318 142.174L157.268 142.224C157.262 142.23 157.253 142.236 157.243 142.242L157.229 142.252C157.225 142.255 157.221 142.258 157.218 142.261C157.199 142.274 157.181 142.289 157.162 142.305C157.143 142.32 157.124 142.336 157.105 142.349C156.955 142.474 156.829 142.586 156.691 142.711C156.428 142.961 156.177 143.224 155.927 143.487C155.676 143.762 155.437 144.037 155.212 144.312C155.155 144.381 155.099 144.453 155.042 144.525C154.986 144.597 154.93 144.669 154.873 144.737C154.76 144.875 154.647 145.013 154.535 145.162C154.309 145.45 154.096 145.738 153.883 146.038C153.456 146.626 153.055 147.226 152.654 147.839Z" fill="black"/>
<path d="M121.041 222.414C122.618 222.657 124.205 222.891 125.784 223.124L126.395 223.214C128.176 223.477 129.969 223.727 131.762 223.977C131.9 224.002 132.038 224.052 132.164 224.115C132.182 224.121 132.198 224.13 132.214 224.14C132.229 224.149 132.245 224.158 132.264 224.165C132.288 224.172 132.306 224.185 132.323 224.197C132.333 224.204 132.342 224.21 132.352 224.215C132.414 224.252 132.465 224.29 132.527 224.34C132.64 224.427 132.753 224.515 132.853 224.615L133.154 224.915C133.204 224.965 133.251 225.018 133.298 225.071C133.346 225.124 133.393 225.178 133.443 225.228C133.487 225.284 133.53 225.337 133.574 225.39C133.618 225.443 133.662 225.497 133.706 225.553C133.882 225.778 134.045 226.003 134.208 226.228C134.534 226.691 134.835 227.166 135.11 227.641C135.399 228.129 135.675 228.617 135.938 229.117C136.201 229.617 136.452 230.118 136.69 230.618C136.929 231.118 137.167 231.631 137.393 232.144C137.844 233.169 138.258 234.207 138.659 235.27C138.86 235.795 139.048 236.321 139.224 236.858C139.412 237.384 139.587 237.922 139.75 238.459C140.089 239.522 140.402 240.598 140.703 241.686C140.992 242.761 141.255 243.862 141.493 244.95C141.606 245.5 141.719 246.051 141.819 246.601C141.908 247.085 141.986 247.579 142.063 248.065L142.095 248.264C143.926 261.196 145.807 274.127 147.738 287.059L147.754 287.176C147.799 287.497 147.842 287.811 147.876 288.134C147.914 288.497 147.951 288.86 147.976 289.222C147.976 289.318 147.983 289.41 147.989 289.5C147.995 289.588 148.001 289.674 148.001 289.76V290.86C148.001 291.036 147.976 291.223 147.951 291.398L147.947 291.431C147.923 291.597 147.898 291.772 147.851 291.936C147.851 291.968 147.841 291.994 147.83 292.022C147.824 292.039 147.818 292.055 147.813 292.074C147.807 292.092 147.801 292.114 147.794 292.136C147.788 292.158 147.782 292.18 147.776 292.199C147.751 292.286 147.713 292.374 147.663 292.449L147.588 292.561C147.563 292.599 147.537 292.636 147.5 292.674C147.496 292.678 147.492 292.683 147.488 292.688C147.479 292.7 147.467 292.715 147.45 292.724C147.425 292.736 147.412 292.749 147.399 292.774L147.287 292.849C147.256 292.869 147.218 292.881 147.184 292.892L147.161 292.899L147.136 292.905C147.098 292.915 147.065 292.924 147.023 292.924H146.885C146.844 292.924 146.811 292.915 146.772 292.905L146.747 292.899C146.716 292.899 146.689 292.889 146.661 292.878C146.645 292.872 146.628 292.866 146.609 292.861C146.572 292.849 146.522 292.824 146.484 292.799C146.396 292.761 146.321 292.711 146.246 292.661C146.183 292.62 146.12 292.569 146.065 292.525L146.033 292.499C145.958 292.436 145.895 292.374 145.832 292.312C145.77 292.249 145.707 292.186 145.644 292.111C145.613 292.08 145.581 292.045 145.55 292.011C145.519 291.977 145.487 291.942 145.456 291.911C145.393 291.836 145.343 291.773 145.28 291.698C145.268 291.68 145.252 291.661 145.236 291.642C145.221 291.623 145.205 291.605 145.192 291.586C145.167 291.548 145.142 291.511 145.105 291.473C144.879 291.186 144.679 290.886 144.478 290.586C144.278 290.286 144.089 289.973 143.913 289.66C143.55 289.035 143.211 288.397 142.885 287.759C142.804 287.596 142.725 287.434 142.647 287.271C142.569 287.109 142.49 286.946 142.409 286.783C142.258 286.459 142.108 286.133 141.957 285.795C141.656 285.133 141.38 284.47 141.105 283.794C135.625 270.35 130.17 256.906 124.74 243.437C124.389 242.574 124.063 241.711 123.749 240.848C123.436 239.985 123.135 239.11 122.847 238.222C122.558 237.346 122.295 236.459 122.032 235.571C121.781 234.683 121.53 233.794 121.304 232.894C121.078 231.994 120.865 231.093 120.69 230.193C120.646 229.968 120.602 229.74 120.558 229.513C120.514 229.284 120.47 229.055 120.426 228.829C120.351 228.379 120.276 227.917 120.213 227.454C120.201 227.341 120.185 227.226 120.169 227.11C120.154 226.994 120.138 226.878 120.125 226.766C120.1 226.541 120.075 226.303 120.063 226.078C120.056 225.966 120.047 225.85 120.038 225.734C120.028 225.619 120.019 225.503 120.013 225.39C120.013 225.278 120.009 225.162 120.006 225.046C120.003 224.931 120 224.815 120 224.702C120 224.465 120 224.24 120.025 224.015C120.025 223.943 120.035 223.871 120.046 223.796C120.052 223.754 120.058 223.71 120.063 223.664C120.063 223.611 120.072 223.567 120.082 223.516L120.088 223.489C120.088 223.449 120.098 223.414 120.109 223.378C120.115 223.358 120.121 223.337 120.125 223.314C120.132 223.289 120.138 223.261 120.144 223.233C120.15 223.205 120.157 223.177 120.163 223.152C120.169 223.127 120.179 223.098 120.188 223.07C120.197 223.042 120.207 223.014 120.213 222.989C120.226 222.964 120.235 222.936 120.245 222.908C120.254 222.88 120.263 222.851 120.276 222.826C120.301 222.776 120.326 222.726 120.364 222.676L120.382 222.652C120.411 222.613 120.435 222.58 120.477 222.539L120.539 222.476C120.552 222.47 120.564 222.461 120.577 222.451C120.589 222.442 120.602 222.432 120.614 222.426L120.69 222.389C120.708 222.389 120.726 222.382 120.75 222.374L120.777 222.364H120.953L121.041 222.414Z" fill="black"/>
<path d="M153.105 252.917C153.092 253.517 153.13 254.13 153.205 254.73H153.18C154.873 267.749 156.604 280.78 158.372 293.799C158.46 294.437 158.597 295.063 158.786 295.675C158.974 296.288 159.212 296.876 159.475 297.464C159.506 297.524 159.534 297.585 159.562 297.645C159.603 297.733 159.644 297.82 159.688 297.902C159.709 297.939 159.73 297.978 159.75 298.017L159.801 298.114C159.839 298.186 159.877 298.258 159.914 298.327C160.065 298.614 160.228 298.889 160.391 299.165C160.717 299.715 161.08 300.24 161.457 300.753C161.845 301.253 162.247 301.753 162.673 302.229C162.886 302.466 163.099 302.704 163.325 302.929C163.55 303.154 163.777 303.38 164.015 303.604C164.479 304.042 164.955 304.467 165.457 304.868C165.946 305.268 166.46 305.643 166.987 306.006C167.513 306.356 168.065 306.693 168.617 307.019C168.905 307.181 169.181 307.331 169.469 307.481C169.757 307.631 170.044 307.768 170.332 307.905C170.909 308.18 171.501 308.432 172.103 308.657C172.705 308.882 173.307 309.07 173.921 309.245C174.222 309.332 174.534 309.407 174.847 309.482C175.148 309.557 175.476 309.62 175.79 309.67L176.266 309.745C176.348 309.757 176.426 309.767 176.504 309.776C176.583 309.786 176.661 309.795 176.743 309.807C177.056 309.845 177.382 309.882 177.696 309.895C178.335 309.945 178.962 309.945 179.602 309.895C180.241 309.845 180.868 309.757 181.508 309.607C194.336 306.581 207.152 303.492 219.967 300.378C220.557 300.24 221.134 300.053 221.698 299.827C221.986 299.715 222.25 299.59 222.525 299.452C222.789 299.302 223.052 299.152 223.315 298.99L223.692 298.727C223.817 298.639 223.942 298.552 224.055 298.452C224.294 298.264 224.519 298.052 224.732 297.839C224.946 297.626 225.146 297.389 225.334 297.151C225.359 297.12 225.381 297.089 225.403 297.057C225.425 297.026 225.447 296.995 225.472 296.964C225.522 296.901 225.573 296.838 225.61 296.776C225.698 296.651 225.786 296.513 225.861 296.388C226.162 295.876 226.413 295.313 226.613 294.737C226.664 294.6 226.714 294.45 226.751 294.3L226.78 294.193L226.818 294.044L226.864 293.862C226.939 293.574 226.99 293.274 227.027 292.974C227.065 292.674 227.102 292.374 227.102 292.074V291.148C227.09 290.848 227.052 290.548 227.015 290.248C226.977 289.948 226.927 289.66 226.864 289.36C226.802 289.072 226.726 288.772 226.639 288.484L226.618 288.423L226.604 288.377L226.57 288.265C226.548 288.194 226.526 288.122 226.501 288.047C226.45 287.896 226.4 287.746 226.35 287.609C226.149 287.034 225.899 286.471 225.635 285.933C225.372 285.395 225.071 284.87 224.745 284.357C224.582 284.095 224.419 283.844 224.243 283.594L223.98 283.219C223.936 283.157 223.889 283.097 223.842 283.038C223.795 282.979 223.748 282.919 223.704 282.856C223.341 282.381 222.939 281.919 222.538 281.468C222.137 281.018 221.71 280.593 221.271 280.18C220.833 279.767 220.381 279.367 219.905 278.992C219.428 278.604 218.939 278.254 218.437 277.904C213.024 274.204 207.61 270.501 202.195 266.799C193.062 260.553 183.927 254.306 174.786 248.064C174.536 247.889 174.285 247.726 174.021 247.564C173.771 247.401 173.507 247.239 173.244 247.089C172.717 246.776 172.178 246.501 171.639 246.238C171.1 245.988 170.548 245.738 169.984 245.525C169.419 245.3 168.842 245.113 168.266 244.938C167.977 244.85 167.689 244.775 167.388 244.7C167.312 244.679 167.233 244.663 167.152 244.645C167.085 244.631 167.017 244.617 166.949 244.6C166.799 244.562 166.648 244.525 166.498 244.5C165.896 244.387 165.294 244.3 164.692 244.237C164.09 244.175 163.475 244.162 162.874 244.175L162.84 244.176C162.549 244.188 162.248 244.201 161.958 244.225C161.883 244.231 161.808 244.24 161.733 244.25C161.657 244.259 161.582 244.268 161.507 244.275C161.356 244.287 161.206 244.312 161.055 244.337C160.453 244.425 159.864 244.575 159.287 244.762C158.999 244.862 158.71 244.963 158.434 245.088C158.146 245.213 157.87 245.338 157.607 245.488C157.343 245.638 157.08 245.8 156.829 245.963C156.788 245.992 156.746 246.02 156.704 246.048C156.62 246.103 156.537 246.159 156.453 246.226C156.408 246.262 156.362 246.296 156.318 246.331C156.239 246.391 156.162 246.449 156.09 246.513C155.613 246.901 155.187 247.339 154.81 247.814C154.71 247.927 154.622 248.052 154.535 248.177L154.518 248.204C154.503 248.226 154.487 248.248 154.472 248.27C154.45 248.302 154.428 248.333 154.409 248.364C154.359 248.439 154.322 248.502 154.284 248.564C154.121 248.827 153.983 249.102 153.857 249.377C153.732 249.652 153.619 249.94 153.531 250.228C153.513 250.303 153.491 250.375 153.469 250.447C153.447 250.518 153.425 250.59 153.406 250.665C153.387 250.74 153.371 250.815 153.356 250.891C153.34 250.965 153.324 251.041 153.306 251.116C153.243 251.416 153.205 251.716 153.168 252.016C153.13 252.316 153.105 252.616 153.105 252.917Z" fill="black"/>
<path d="M318.104 256.818C318.393 256.593 318.681 256.368 318.969 256.156C319.258 255.943 319.559 255.73 319.86 255.53L320.537 255.08C320.589 255.045 320.641 255.017 320.697 254.986L320.775 254.942C320.813 254.917 320.853 254.896 320.894 254.874C320.935 254.852 320.976 254.83 321.013 254.805C321.038 254.788 321.065 254.773 321.092 254.758C321.126 254.74 321.161 254.724 321.194 254.708L321.251 254.68C321.414 254.593 321.577 254.518 321.739 254.443C321.902 254.368 322.079 254.305 322.255 254.255C322.273 254.248 322.295 254.242 322.317 254.236C322.339 254.23 322.361 254.223 322.38 254.217C322.412 254.217 322.439 254.207 322.467 254.197C322.483 254.19 322.5 254.184 322.518 254.18C322.606 254.155 322.694 254.142 322.794 254.142H323.07C323.12 254.142 323.158 254.142 323.208 254.167C323.233 254.167 323.258 254.167 323.27 254.18L323.282 254.18L323.289 254.182L323.299 254.185C323.305 254.187 323.311 254.189 323.316 254.192C323.323 254.196 323.329 254.2 323.333 254.205C323.371 254.217 323.421 254.242 323.458 254.267C323.496 254.292 323.534 254.317 323.571 254.355C323.592 254.375 323.609 254.392 323.624 254.411C323.636 254.427 323.648 254.445 323.659 254.467C323.684 254.505 323.709 254.542 323.722 254.592C323.759 254.68 323.785 254.767 323.797 254.855C323.81 254.942 323.81 255.043 323.797 255.13V255.268C323.797 255.29 323.797 255.311 323.796 255.331C323.795 255.341 323.794 255.351 323.793 255.361C323.791 255.375 323.788 255.39 323.785 255.405V255.543C323.785 255.593 323.772 255.63 323.759 255.68C323.722 255.855 323.672 256.03 323.609 256.206L323.57 256.312L323.515 256.461C323.484 256.545 323.452 256.631 323.421 256.718C323.358 256.881 323.283 257.056 323.208 257.219C323.132 257.381 323.057 257.544 322.969 257.706C322.806 258.031 322.631 258.344 322.455 258.657C322.092 259.282 321.715 259.895 321.314 260.495C320.913 261.096 320.499 261.696 320.073 262.284C319.647 262.871 319.208 263.445 318.77 264.02C309.854 275.438 300.924 286.846 291.958 298.227C291.382 298.952 290.792 299.677 290.19 300.378C289.588 301.091 288.974 301.778 288.347 302.466C287.72 303.154 287.093 303.829 286.441 304.492C285.789 305.155 285.137 305.818 284.472 306.456C283.808 307.094 283.118 307.731 282.428 308.344C282.077 308.657 281.726 308.957 281.362 309.245C281.187 309.395 280.999 309.545 280.823 309.682C280.635 309.832 280.459 309.97 280.271 310.108C279.908 310.395 279.531 310.67 279.143 310.933L278.932 311.075L278.799 311.164C278.721 311.217 278.642 311.27 278.566 311.321C278.365 311.446 278.165 311.571 277.964 311.683C277.763 311.796 277.55 311.908 277.35 312.008C277.249 312.059 277.136 312.109 277.036 312.146L277.025 312.151L277.008 312.158C276.991 312.165 276.973 312.171 276.955 312.177C276.926 312.187 276.898 312.196 276.873 312.209C276.863 312.214 276.852 312.218 276.84 312.223L276.817 312.231L276.796 312.237C276.775 312.243 276.755 312.248 276.735 312.252L276.71 312.259C276.66 312.271 276.597 312.296 276.547 312.309C276.484 312.321 276.434 312.334 276.371 312.346C276.355 312.346 276.339 312.348 276.324 312.35C276.31 312.353 276.297 312.356 276.284 312.359C276.255 312.365 276.227 312.371 276.196 312.371H276.02C275.958 312.371 275.907 312.371 275.845 312.346C275.82 312.346 275.782 312.334 275.757 312.321C275.74 312.321 275.724 312.31 275.707 312.299C275.698 312.293 275.69 312.288 275.682 312.284C275.657 312.271 275.632 312.259 275.607 312.234C275.598 312.229 275.59 312.223 275.584 312.216C275.571 312.203 275.56 312.187 275.544 312.171C275.531 312.159 275.52 312.143 275.51 312.127C275.49 312.093 275.473 312.054 275.456 312.021L273.312 307.106C272.765 305.853 272.211 304.607 271.655 303.357L271.142 302.204C271.08 302.066 271.055 301.928 271.042 301.791V301.566C271.042 301.491 271.042 301.428 271.055 301.353C271.055 301.278 271.067 301.216 271.08 301.141C271.08 301.092 271.09 301.049 271.101 301.005L271.111 300.962L271.117 300.928C271.117 300.89 271.13 300.853 271.142 300.828C271.142 300.813 271.144 300.799 271.147 300.785C271.152 300.763 271.16 300.743 271.167 300.728C271.18 300.665 271.205 300.59 271.23 300.528C271.23 300.509 271.236 300.493 271.243 300.478C271.249 300.462 271.255 300.446 271.255 300.428C271.255 300.404 271.265 300.386 271.275 300.366C271.282 300.354 271.288 300.342 271.293 300.328C271.305 300.296 271.315 300.262 271.324 300.228C271.334 300.193 271.343 300.159 271.356 300.128C271.406 299.99 271.456 299.865 271.506 299.727C271.606 299.465 271.719 299.215 271.845 298.952C272.083 298.439 272.346 297.951 272.622 297.451C272.76 297.201 272.898 296.963 273.048 296.726C273.124 296.607 273.196 296.488 273.268 296.369C273.34 296.25 273.412 296.132 273.487 296.013C273.788 295.538 274.102 295.075 274.415 294.612C274.729 294.15 275.055 293.699 275.393 293.249C276.058 292.349 276.748 291.473 277.462 290.623C278.177 289.772 278.905 288.922 279.669 288.097C280.422 287.271 281.199 286.458 282.002 285.67C282.403 285.271 282.804 284.883 283.204 284.496C283.618 284.108 284.021 283.732 284.447 283.357C284.873 282.981 285.287 282.619 285.714 282.256C286.14 281.893 286.579 281.543 287.018 281.193C297.413 273.089 307.784 264.96 318.129 256.793L318.104 256.818Z" fill="black"/>
<path d="M261.775 318.722C261.763 318.66 261.712 318.56 261.712 318.56L261.7 318.597C260.81 317.047 259.932 315.496 259.054 313.933C258.622 313.154 258.188 312.374 257.753 311.595L257.75 311.589C257.314 310.808 256.878 310.026 256.446 309.244L256.437 309.235C256.429 309.224 256.421 309.212 256.414 309.2L256.401 309.179L256.395 309.17C256.391 309.165 256.387 309.161 256.383 309.157L256.365 309.129C256.35 309.106 256.339 309.087 256.32 309.069L256.095 308.844L256.063 308.824L256.042 308.81C256.03 308.802 256.018 308.793 256.007 308.782C255.944 308.731 255.894 308.694 255.831 308.656C255.718 308.581 255.593 308.506 255.468 308.444C255.342 308.381 255.204 308.319 255.079 308.269C255.041 308.256 255.016 308.244 254.979 308.231C254.964 308.227 254.952 308.22 254.94 308.214C254.927 308.207 254.914 308.2 254.9 308.197C254.893 308.195 254.886 308.194 254.878 308.194C254.847 308.181 254.812 308.169 254.778 308.156C254.743 308.144 254.709 308.131 254.678 308.119L254.591 308.087C254.485 308.048 254.385 308.011 254.276 307.981C254 307.894 253.737 307.819 253.461 307.756C253.186 307.694 252.909 307.631 252.634 307.581C252.45 307.539 252.266 307.509 252.082 307.478C251.99 307.463 251.898 307.448 251.806 307.431C251.254 307.344 250.702 307.269 250.138 307.206C249.586 307.143 249.022 307.093 248.458 307.056C247.906 307.018 247.342 306.993 246.777 306.968C245.649 306.931 244.533 306.918 243.404 306.931C242.276 306.943 241.16 306.993 240.031 307.056L239.924 307.063C239.406 307.098 238.879 307.134 238.351 307.181C237.786 307.231 237.235 307.281 236.67 307.344C235.554 307.456 234.438 307.606 233.335 307.781C232.784 307.869 232.232 307.969 231.681 308.068L231.678 308.069C231.127 308.182 230.575 308.294 230.024 308.419C217.259 311.37 204.468 314.271 191.678 317.134C191.314 317.209 190.963 317.284 190.612 317.384C190.495 317.418 190.378 317.45 190.261 317.482C190.027 317.545 189.792 317.61 189.558 317.684L189.355 317.752C189.081 317.842 188.801 317.935 188.53 318.035L188.423 318.075C188.292 318.125 188.156 318.176 188.028 318.235C187.865 318.31 187.702 318.385 187.539 318.472C187.502 318.497 187.461 318.519 187.42 318.541C187.38 318.563 187.339 318.585 187.301 318.61L187.075 318.76C187 318.81 186.925 318.86 186.862 318.922C186.825 318.947 186.8 318.972 186.762 319.01C186.749 319.023 186.736 319.034 186.723 319.045C186.7 319.066 186.678 319.085 186.662 319.11L186.626 319.151C186.576 319.209 186.529 319.264 186.499 319.335C186.486 319.373 186.461 319.423 186.448 319.46C186.423 319.51 186.411 319.548 186.411 319.598V319.798C186.423 319.81 186.423 319.835 186.423 319.86L186.431 319.883C186.441 319.917 186.453 319.955 186.474 319.985L186.549 320.098C186.574 320.123 186.611 320.16 186.637 320.198C186.65 320.211 186.661 320.224 186.672 320.236C186.693 320.26 186.712 320.282 186.737 320.298C186.8 320.36 186.875 320.41 186.95 320.46C187.025 320.51 187.113 320.56 187.188 320.598C187.207 320.61 187.229 320.62 187.251 320.629L187.272 320.638C187.287 320.645 187.301 320.652 187.314 320.66L187.326 320.668L187.335 320.673L187.352 320.681L187.376 320.692L187.392 320.699L187.414 320.708L187.43 320.717L187.439 320.723C187.602 320.798 187.765 320.861 187.941 320.923C188.116 320.986 188.279 321.036 188.455 321.086C188.806 321.186 189.157 321.261 189.508 321.336C189.596 321.354 189.684 321.37 189.771 321.386C189.859 321.401 189.947 321.417 190.035 321.436C190.077 321.442 190.119 321.448 190.162 321.455L190.446 321.503L190.512 321.514L190.574 321.523C190.75 321.548 190.938 321.573 191.113 321.598L191.652 321.673C192.016 321.711 192.367 321.748 192.731 321.786C193.446 321.848 194.173 321.898 194.888 321.936L194.924 321.938C195.639 321.975 196.342 322.011 197.057 322.011C211.603 322.248 226.137 322.461 240.671 322.649C241.586 322.661 242.514 322.661 243.442 322.636C244.37 322.611 245.285 322.574 246.213 322.524C247.141 322.474 248.057 322.411 248.984 322.324C249.9 322.248 250.828 322.148 251.743 322.036C252.659 321.923 253.574 321.786 254.489 321.636C254.941 321.561 255.405 321.473 255.856 321.386C256.007 321.352 256.157 321.32 256.308 321.288C256.609 321.225 256.91 321.161 257.211 321.086C257.662 320.986 258.113 320.861 258.552 320.735C258.778 320.673 259.004 320.61 259.217 320.535L259.35 320.489C259.523 320.429 259.7 320.367 259.869 320.298C260.082 320.21 260.295 320.123 260.509 320.023C260.571 319.998 260.621 319.973 260.672 319.948C260.722 319.91 260.772 319.885 260.822 319.86L260.897 319.823C260.91 319.81 260.922 319.798 260.935 319.798C260.947 319.785 260.973 319.773 260.973 319.773C261.023 319.748 261.073 319.723 261.123 319.685L261.136 319.673L261.148 319.663C261.165 319.65 261.183 319.638 261.202 319.625L261.238 319.602L261.261 319.585C261.286 319.566 261.308 319.548 261.33 319.529C261.352 319.51 261.374 319.491 261.399 319.473C261.487 319.398 261.574 319.323 261.637 319.222C261.65 319.209 261.66 319.196 261.668 319.183L261.676 319.169L261.687 319.147L261.694 319.136L261.711 319.11L261.716 319.102L261.721 319.091C261.723 319.085 261.725 319.079 261.725 319.072C261.725 319.035 261.75 319.01 261.75 318.985C261.775 318.96 261.775 318.922 261.775 318.897V318.722Z" fill="black"/>
<path d="M322.255 203.804C313.289 194.225 304.298 184.682 295.269 175.165C294.88 174.752 294.504 174.34 294.128 173.915C293.752 173.489 293.388 173.064 293.037 172.626C292.322 171.751 291.633 170.863 290.968 169.963C290.629 169.512 290.303 169.05 289.99 168.587C289.664 168.124 289.35 167.661 289.037 167.186C288.41 166.248 287.82 165.298 287.244 164.322C286.667 163.359 286.115 162.371 285.601 161.371C285.338 160.87 285.087 160.37 284.836 159.857C284.585 159.345 284.359 158.832 284.134 158.319C283.908 157.806 283.695 157.281 283.494 156.756C283.394 156.493 283.306 156.231 283.218 155.956C283.199 155.887 283.178 155.821 283.156 155.755C283.134 155.69 283.112 155.624 283.093 155.555C283.055 155.418 283.018 155.28 282.98 155.155C282.905 154.88 282.842 154.605 282.779 154.33C282.717 154.055 282.679 153.779 282.641 153.492C282.641 153.426 282.632 153.37 282.621 153.307L282.616 153.279V152.641C282.616 152.576 282.626 152.52 282.637 152.457L282.641 152.429C282.641 152.391 282.641 152.354 282.654 152.329C282.654 152.291 282.667 152.254 282.679 152.229C282.692 152.166 282.717 152.091 282.742 152.029C282.748 152.01 282.754 151.994 282.761 151.979C282.767 151.963 282.773 151.947 282.779 151.929C282.792 151.903 282.817 151.866 282.83 151.841C283.808 150.265 284.786 148.689 285.751 147.114L286.386 146.079C287.143 144.844 287.903 143.605 288.648 142.374C288.673 142.324 288.711 142.274 288.761 142.236C288.786 142.211 288.811 142.199 288.836 142.186L288.911 142.149C288.923 142.149 288.934 142.144 288.946 142.138C288.962 142.131 288.978 142.124 288.999 142.124C289.012 142.124 289.027 142.12 289.043 142.117C289.059 142.114 289.074 142.111 289.087 142.111H289.262C289.325 142.111 289.375 142.111 289.438 142.136C289.492 142.136 289.536 142.154 289.587 142.175L289.614 142.186C289.726 142.224 289.839 142.261 289.94 142.311C290.153 142.411 290.353 142.524 290.542 142.661C290.642 142.724 290.742 142.786 290.83 142.861C290.93 142.924 291.018 142.999 291.106 143.074C291.294 143.212 291.47 143.362 291.645 143.512C291.808 143.651 291.971 143.801 292.124 143.942L292.159 143.975C292.498 144.287 292.824 144.612 293.15 144.95C293.476 145.288 293.789 145.625 294.09 145.976C294.404 146.325 294.704 146.675 295.005 147.025C295.594 147.738 296.172 148.464 296.736 149.202C297.301 149.94 297.84 150.69 298.379 151.441C298.918 152.204 299.432 152.967 299.946 153.742C300.461 154.517 300.95 155.305 301.439 156.093C301.915 156.881 302.392 157.681 302.843 158.494C309.916 171.188 316.975 183.894 323.998 196.613C324.349 197.251 324.687 197.889 325.026 198.539C325.352 199.19 325.678 199.84 325.967 200.503C326.117 200.828 326.267 201.166 326.405 201.503C326.464 201.631 326.516 201.766 326.565 201.897L326.606 202.004C326.637 202.091 326.672 202.176 326.706 202.26C326.741 202.344 326.775 202.429 326.807 202.516C326.932 202.854 327.057 203.204 327.158 203.542C327.271 203.892 327.371 204.242 327.446 204.592C327.484 204.767 327.521 204.943 327.547 205.13L327.547 205.149L327.548 205.16C327.55 205.175 327.552 205.19 327.556 205.204L327.565 205.243L327.572 205.268C327.572 205.318 327.572 205.355 327.584 205.405C327.584 205.449 327.59 205.496 327.597 205.543C327.603 205.59 327.609 205.637 327.609 205.68V205.956C327.609 206.043 327.609 206.143 327.597 206.231C327.597 206.318 327.572 206.418 327.547 206.506C327.547 206.537 327.536 206.564 327.526 206.592L327.516 206.621L327.509 206.643C327.496 206.681 327.471 206.731 327.446 206.768L327.371 206.881C327.358 206.893 327.346 206.919 327.321 206.931L327.271 206.981C327.265 206.985 327.26 206.988 327.255 206.992C327.25 206.996 327.245 207 327.24 207.004L327.214 207.025L327.185 207.049C327.176 207.056 327.167 207.063 327.158 207.069C327.136 207.083 327.11 207.093 327.084 207.105C327.073 207.109 327.063 207.114 327.052 207.119C327.045 207.123 327.039 207.127 327.032 207.131C326.995 207.144 326.945 207.156 326.894 207.169C326.844 207.169 326.807 207.169 326.757 207.181H326.619C326.568 207.181 326.531 207.181 326.481 207.169C326.315 207.136 326.168 207.083 326.015 207.028L325.954 207.006C325.935 206.994 325.913 206.984 325.891 206.975L325.866 206.963C325.853 206.958 325.84 206.951 325.829 206.944C325.815 206.934 325.8 206.927 325.784 206.92L325.766 206.912C325.744 206.903 325.722 206.893 325.703 206.881C325.628 206.843 325.54 206.793 325.465 206.743L325.395 206.697L325.313 206.644C325.21 206.577 325.105 206.51 325.013 206.443C324.909 206.374 324.81 206.298 324.709 206.22L324.632 206.161L324.575 206.118C324.523 206.084 324.478 206.044 324.43 206.002C324.408 205.983 324.385 205.963 324.361 205.943L324.148 205.768C324.01 205.655 323.872 205.53 323.734 205.405C323.665 205.343 323.6 205.28 323.534 205.218C323.468 205.155 323.402 205.093 323.333 205.03C323.31 205.007 323.287 204.985 323.264 204.962C323.247 204.945 323.229 204.928 323.212 204.911L323.207 204.907C323.119 204.822 323.028 204.735 322.944 204.642C322.681 204.38 322.43 204.117 322.18 203.854L322.255 203.804Z" fill="black"/>
<path d="M195.389 130.655C207.603 135.733 219.804 140.848 231.981 146.001C232.545 146.238 233.097 146.513 233.611 146.839C233.874 147.001 234.125 147.164 234.363 147.351C234.426 147.395 234.485 147.442 234.545 147.489C234.605 147.536 234.664 147.583 234.727 147.626C234.783 147.676 234.843 147.726 234.902 147.776C234.962 147.826 235.021 147.876 235.078 147.927C235.134 147.977 235.191 148.03 235.247 148.083C235.304 148.136 235.36 148.189 235.417 148.239C235.529 148.352 235.63 148.464 235.73 148.577C235.931 148.802 236.131 149.04 236.307 149.29C236.482 149.54 236.645 149.802 236.796 150.065C236.871 150.203 236.946 150.34 237.009 150.478C237.072 150.615 237.135 150.753 237.197 150.903C237.423 151.466 237.586 152.054 237.686 152.666C237.711 152.816 237.736 152.967 237.749 153.129C237.753 153.177 237.758 153.225 237.764 153.274C237.775 153.376 237.787 153.482 237.787 153.592C237.812 153.892 237.812 154.204 237.812 154.504C237.812 154.805 237.787 155.118 237.749 155.418C237.738 155.547 237.718 155.677 237.696 155.815L237.686 155.881L237.611 156.331C237.486 156.931 237.323 157.519 237.109 158.094C237.084 158.163 237.056 158.234 237.028 158.306C237.02 158.328 237.01 158.351 237.002 158.373C236.983 158.423 236.964 158.472 236.946 158.519L236.924 158.568L236.888 158.651L236.852 158.732C236.821 158.804 236.79 158.876 236.758 158.945C236.633 159.22 236.495 159.495 236.344 159.77C236.056 160.308 235.73 160.82 235.379 161.321C235.028 161.821 234.652 162.296 234.25 162.759C234.05 162.984 233.837 163.222 233.636 163.434C233.423 163.659 233.21 163.872 232.984 164.085C232.545 164.51 232.093 164.91 231.617 165.285C231.14 165.66 230.664 166.023 230.162 166.373C229.661 166.711 229.147 167.036 228.62 167.349C228.357 167.499 228.081 167.649 227.817 167.786C227.725 167.832 227.635 167.878 227.544 167.924C227.363 168.016 227.182 168.107 226.99 168.199C211.077 175.803 195.151 183.407 179.238 190.998C178.686 191.261 178.122 191.498 177.558 191.723C176.994 191.936 176.417 192.136 175.84 192.311C175.263 192.486 174.674 192.636 174.084 192.761C173.495 192.887 172.893 192.987 172.291 193.074C171.99 193.112 171.677 193.149 171.376 193.174C171.086 193.198 170.785 193.211 170.495 193.223L170.46 193.224C169.846 193.249 169.244 193.237 168.642 193.199C168.341 193.174 168.04 193.149 167.739 193.112C167.438 193.074 167.137 193.024 166.836 192.974C166.761 192.962 166.686 192.946 166.611 192.93C166.536 192.915 166.46 192.899 166.385 192.887L165.933 192.774C165.632 192.699 165.344 192.611 165.056 192.511C164.479 192.324 163.915 192.086 163.375 191.798C163.238 191.724 163.099 191.648 162.974 191.573C162.888 191.527 162.808 191.475 162.729 191.425C162.692 191.402 162.657 191.379 162.621 191.357L162.585 191.336C162.335 191.173 162.084 190.998 161.833 190.81C161.595 190.623 161.356 190.423 161.143 190.223C161.03 190.123 160.918 190.01 160.817 189.898C160.767 189.841 160.714 189.785 160.66 189.729C160.607 189.673 160.554 189.616 160.504 189.56C160.102 189.097 159.751 188.597 159.45 188.072C159.3 187.809 159.174 187.534 159.049 187.246C158.999 187.137 158.958 187.021 158.918 186.908L158.886 186.821L158.856 186.731C158.816 186.615 158.778 186.503 158.748 186.383C158.66 186.083 158.598 185.795 158.56 185.483C158.51 185.183 158.485 184.883 158.472 184.57V183.644C158.472 183.494 158.485 183.332 158.497 183.182C158.51 183.032 158.522 182.882 158.547 182.731C158.623 182.131 158.761 181.531 158.924 180.943C162.61 168.212 166.322 155.505 170.084 142.799C170.272 142.174 170.51 141.573 170.786 140.998C171.062 140.423 171.376 139.873 171.727 139.335C171.902 139.072 172.09 138.809 172.279 138.547C172.329 138.484 172.376 138.419 172.423 138.353C172.47 138.287 172.517 138.222 172.567 138.159L172.868 137.784C173.069 137.534 173.282 137.296 173.507 137.059C173.721 136.821 173.946 136.596 174.172 136.371C174.624 135.921 175.1 135.495 175.589 135.083C176.078 134.67 176.592 134.295 177.119 133.92C177.646 133.557 178.197 133.207 178.749 132.882C179.301 132.556 179.878 132.256 180.455 131.981C181.031 131.706 181.621 131.456 182.223 131.218C182.825 130.993 183.426 130.78 184.053 130.605C184.367 130.518 184.68 130.43 184.994 130.355C185.307 130.28 185.621 130.205 185.934 130.143C186.561 130.018 187.201 129.918 187.828 129.843C188.467 129.767 189.107 129.73 189.747 129.717H190.712C190.875 129.717 191.038 129.73 191.201 129.742C191.31 129.742 191.419 129.754 191.527 129.765C191.582 129.77 191.636 129.776 191.69 129.78C192.33 129.843 192.969 129.943 193.584 130.093C194.198 130.243 194.825 130.43 195.427 130.68L195.389 130.655Z" fill="black"/>
<path d="M181.683 233.719C182.248 234.22 182.85 234.682 183.489 235.095L183.477 235.083C190.81 240.094 198.147 245.109 205.484 250.124C212.813 255.133 220.141 260.142 227.466 265.148C227.78 265.373 228.093 265.585 228.419 265.785C228.745 265.985 229.084 266.173 229.422 266.348C230.1 266.698 230.789 266.986 231.504 267.236C232.219 267.486 232.946 267.686 233.686 267.836C233.78 267.855 233.874 267.871 233.968 267.886C234.062 267.902 234.156 267.918 234.25 267.936C234.438 267.974 234.626 267.999 234.815 268.024C235.191 268.074 235.567 268.112 235.943 268.137C236.708 268.187 237.46 268.187 238.213 268.149C238.589 268.124 238.966 268.099 239.341 268.049L239.906 267.974C240 267.955 240.094 267.94 240.188 267.924C240.282 267.908 240.376 267.893 240.47 267.874C241.222 267.736 241.962 267.549 242.677 267.324C243.404 267.086 244.107 266.811 244.784 266.486C245.135 266.323 245.461 266.148 245.799 265.96C245.962 265.873 246.126 265.773 246.289 265.673C246.37 265.623 246.449 265.573 246.527 265.523C246.605 265.473 246.684 265.422 246.765 265.373C247.392 264.947 247.994 264.497 248.571 264.009C249.148 263.522 249.687 262.996 250.201 262.434C250.326 262.296 250.452 262.159 250.577 262.008C250.703 261.871 250.828 261.721 250.941 261.571C251.179 261.271 251.405 260.97 251.618 260.658C252.044 260.033 252.433 259.395 252.784 258.719C252.96 258.382 253.123 258.044 253.273 257.694C253.332 257.577 253.379 257.46 253.426 257.344C253.45 257.285 253.474 257.227 253.499 257.169C253.574 256.981 253.637 256.806 253.7 256.631C253.963 255.918 254.164 255.193 254.314 254.455C254.464 253.717 254.565 252.966 254.602 252.204C255.292 243.368 255.978 234.536 256.664 225.704L256.664 225.699C257.351 216.856 258.038 208.012 258.728 199.165C258.766 198.789 258.803 198.402 258.803 198.026C258.816 197.651 258.803 197.264 258.791 196.888C258.753 196.138 258.653 195.388 258.515 194.65C258.364 193.924 258.176 193.187 257.938 192.474C257.907 192.386 257.875 192.295 257.844 192.205C257.813 192.114 257.781 192.023 257.75 191.936C257.721 191.865 257.695 191.795 257.668 191.727C257.625 191.616 257.583 191.507 257.537 191.398C257.399 191.048 257.236 190.698 257.073 190.36C256.747 189.685 256.371 189.022 255.957 188.397C255.744 188.084 255.53 187.771 255.305 187.471C255.192 187.321 255.079 187.171 254.954 187.021C254.876 186.918 254.793 186.821 254.708 186.722L254.705 186.719C254.667 186.674 254.628 186.629 254.59 186.583C254.101 186.008 253.574 185.458 253.01 184.957C252.446 184.445 251.856 183.982 251.229 183.557C250.916 183.344 250.59 183.144 250.264 182.944C250.101 182.844 249.925 182.744 249.762 182.656C249.599 182.569 249.436 182.481 249.26 182.394C248.583 182.043 247.894 181.756 247.179 181.506C246.477 181.256 245.737 181.055 244.997 180.893L244.433 180.78C244.339 180.768 244.244 180.752 244.15 180.737C244.056 180.721 243.962 180.705 243.868 180.693C243.492 180.643 243.116 180.593 242.74 180.568C241.987 180.505 241.222 180.493 240.47 180.53C240.094 180.543 239.705 180.58 239.329 180.618L238.765 180.693C238.577 180.718 238.388 180.743 238.2 180.78C237.448 180.918 236.721 181.106 236.006 181.343C235.291 181.581 234.601 181.868 233.912 182.219C225.911 186.037 217.91 189.858 209.909 193.679L209.857 193.704C201.837 197.535 193.817 201.365 185.796 205.193C185.445 205.355 185.107 205.518 184.768 205.705C184.43 205.893 184.091 206.093 183.778 206.293C183.138 206.706 182.536 207.156 181.972 207.644C181.408 208.132 180.868 208.669 180.367 209.232C180.304 209.307 180.241 209.379 180.179 209.451C180.116 209.523 180.053 209.595 179.991 209.67C179.865 209.82 179.74 209.97 179.627 210.12C179.401 210.42 179.175 210.733 178.962 211.045C178.548 211.671 178.16 212.321 177.821 212.996C177.658 213.334 177.495 213.672 177.345 214.022C177.307 214.11 177.273 214.197 177.238 214.285C177.204 214.372 177.169 214.46 177.131 214.547C177.072 214.686 177.02 214.833 176.97 214.975L176.931 215.085C176.68 215.798 176.479 216.523 176.316 217.261C176.153 217.986 176.053 218.737 175.99 219.487C175.965 219.862 175.94 220.25 175.94 220.625V221.201C175.953 221.388 175.965 221.576 175.965 221.763C176.003 222.514 176.103 223.264 176.241 224.002C176.379 224.74 176.567 225.465 176.805 226.191C176.837 226.278 176.868 226.369 176.899 226.459C176.931 226.55 176.962 226.641 176.994 226.728C177.056 226.916 177.119 227.091 177.194 227.266C177.332 227.616 177.483 227.966 177.646 228.304C177.959 228.979 178.323 229.642 178.737 230.28C178.95 230.605 179.163 230.905 179.389 231.218C179.445 231.293 179.505 231.368 179.564 231.443C179.624 231.518 179.683 231.593 179.74 231.668C179.784 231.722 179.827 231.775 179.87 231.828C179.947 231.924 180.023 232.018 180.103 232.106C180.592 232.681 181.119 233.219 181.683 233.719Z" fill="black"/>
<path d="M286.98 268.449C286.491 268.824 285.99 269.15 285.45 269.45C285.187 269.6 284.911 269.725 284.636 269.85C284.498 269.912 284.359 269.975 284.209 270.025C284.171 270.039 284.131 270.054 284.092 270.069C283.989 270.108 283.882 270.148 283.783 270.175C283.735 270.191 283.688 270.206 283.642 270.22C283.616 270.228 283.589 270.236 283.563 270.244C283.491 270.266 283.419 270.288 283.344 270.313L282.892 270.425C282.591 270.488 282.29 270.538 281.989 270.575C281.688 270.613 281.387 270.625 281.074 270.625C280.923 270.625 280.76 270.625 280.61 270.6C280.459 270.6 280.309 270.575 280.159 270.55C279.557 270.475 278.967 270.325 278.378 270.113C278.29 270.083 278.206 270.05 278.125 270.017C278.066 269.994 278.009 269.971 277.951 269.95L277.538 269.762C277.262 269.625 276.998 269.487 276.735 269.325C276.472 269.162 276.221 269 275.97 268.824C275.867 268.753 275.764 268.672 275.668 268.597L275.607 268.549L275.544 268.5C275.443 268.419 275.349 268.345 275.255 268.262C274.791 267.862 274.365 267.424 273.976 266.961C273.912 266.889 273.853 266.812 273.793 266.734C273.759 266.689 273.724 266.643 273.688 266.598C273.616 266.496 273.535 266.393 273.46 266.297L273.412 266.236C273.237 265.986 273.061 265.735 272.91 265.473C272.584 264.96 272.309 264.422 272.045 263.872C271.794 263.322 271.569 262.759 271.368 262.184C271.268 261.896 271.18 261.608 271.092 261.308C271.019 261.07 270.955 260.823 270.893 260.581L270.854 260.433C270.703 259.845 270.591 259.257 270.503 258.657C270.415 258.057 270.34 257.456 270.29 256.856C270.24 256.256 270.214 255.643 270.214 255.043C270.214 254.743 270.214 254.429 270.227 254.13C270.227 253.829 270.252 253.517 270.277 253.217L274.378 200.578C274.428 199.965 274.491 199.365 274.591 198.764C274.679 198.164 274.804 197.576 274.942 196.989C275.08 196.401 275.243 195.813 275.431 195.238C275.619 194.662 275.832 194.087 276.058 193.524C276.171 193.237 276.296 192.962 276.434 192.686C276.56 192.411 276.698 192.136 276.848 191.874C277.136 191.336 277.437 190.81 277.776 190.31C277.939 190.06 278.115 189.81 278.303 189.572L278.434 189.405C278.579 189.219 278.726 189.032 278.879 188.86C278.93 188.803 278.98 188.744 279.03 188.684C279.08 188.625 279.13 188.566 279.18 188.509C279.231 188.453 279.284 188.397 279.337 188.341C279.39 188.284 279.444 188.228 279.494 188.172C279.707 187.959 279.92 187.746 280.159 187.534C280.61 187.134 281.099 186.758 281.613 186.421C281.705 186.357 281.803 186.3 281.898 186.244L282.002 186.183C282.024 186.171 282.047 186.159 282.069 186.146C282.114 186.121 282.158 186.096 282.202 186.071C282.268 186.033 282.334 185.996 282.403 185.958C282.679 185.82 282.955 185.683 283.231 185.57C283.507 185.458 283.795 185.345 284.096 185.258C284.384 185.17 284.685 185.095 284.986 185.033C285.287 184.97 285.588 184.92 285.902 184.895C286.203 184.87 286.516 184.845 286.817 184.858C287.118 184.858 287.432 184.883 287.733 184.92C287.748 184.923 287.764 184.925 287.779 184.927C287.814 184.933 287.848 184.937 287.883 184.942C287.983 184.956 288.084 184.97 288.184 184.995C288.334 185.02 288.485 185.058 288.635 185.095C289.225 185.245 289.802 185.458 290.353 185.733C290.422 185.77 290.491 185.805 290.56 185.839C290.629 185.873 290.698 185.908 290.767 185.946C290.905 186.021 291.031 186.096 291.156 186.183C291.419 186.346 291.67 186.521 291.908 186.708C292.397 187.071 292.849 187.484 293.275 187.922C302.467 197.389 311.633 206.869 320.762 216.398C321.214 216.874 321.615 217.374 321.979 217.899C322.342 218.424 322.668 218.975 322.957 219.55C323.107 219.837 323.245 220.125 323.371 220.425C323.496 220.725 323.622 221.026 323.734 221.326C323.96 221.926 324.148 222.539 324.311 223.152C324.474 223.764 324.6 224.39 324.712 225.028C324.763 225.34 324.813 225.665 324.85 225.978C324.874 226.128 324.886 226.278 324.898 226.419L324.901 226.453C324.913 226.616 324.926 226.779 324.951 226.929C325.001 227.566 325.026 228.217 325.026 228.855C325.026 229.492 325.001 230.13 324.951 230.768C324.901 231.406 324.825 232.044 324.725 232.669C324.675 232.982 324.612 233.307 324.549 233.619C324.487 233.932 324.412 234.244 324.336 234.557C324.186 235.182 324.01 235.795 323.797 236.396C323.596 236.996 323.371 237.596 323.107 238.172C322.857 238.759 322.568 239.322 322.255 239.885C322.154 240.069 322.043 240.252 321.931 240.436C321.876 240.527 321.82 240.619 321.766 240.71L321.502 241.123C321.481 241.157 321.458 241.19 321.436 241.223C321.412 241.256 321.388 241.29 321.364 241.323C321.317 241.389 321.27 241.455 321.226 241.523C320.85 242.049 320.449 242.549 320.01 243.012C319.571 243.474 319.095 243.912 318.58 244.312C308.072 252.404 297.539 260.458 286.993 268.487L286.98 268.449Z" fill="black"/>
<path d="M638.923 282.031V180.205H613.981V235.358C613.981 255.668 601.642 270.413 582.882 270.413C564.123 270.413 552.924 257.894 552.924 236.921V180.205H528.434V238.059C528.434 254.642 532.861 268.462 541.25 277.991C550.266 288.234 563.358 293.437 580.086 293.437C593.691 294.237 606.67 287.771 614.194 276.716V282.269C614.194 306.918 600.889 322.239 579.421 322.239C565.753 322.876 553.1 315.898 546.416 304.042L545.877 303.079L526.29 313.647L525.337 314.172C525.437 314.38 525.548 314.6 525.66 314.819C525.716 314.929 525.772 315.039 525.826 315.148C525.838 315.173 525.851 315.194 525.864 315.216C525.876 315.238 525.889 315.26 525.901 315.285C525.955 315.381 526.003 315.474 526.051 315.566C526.116 315.691 526.18 315.813 526.252 315.935C536.247 334.695 555.282 345 579.935 345C615.774 345 638.923 320.288 638.923 282.031Z" fill="black"/>
</svg>
